<?xml version="1.0" encoding="UTF-8"?>
<svg id="Layer_1" xmlns="http://www.w3.org/2000/svg" version="1.1" viewBox="0 0 1920 975.93">
  <!-- Generator: Adobe Illustrator 29.7.1, SVG Export Plug-In . SVG Version: 2.1.1 Build 8)  -->
  <defs>
    <style>
      .st0 {
        fill: #8f8f8f;
      }
    </style>
  </defs>
  <path class="st0" d="M95.85,390.19c-7.24-2.37-11.81-8.9-10.05-16.04,1.35-5.46,5.48-11.49,14.43-11.09,23.9,1.08,46.02,1.52,70.64.74,42.98-1.37,168.74-.43,212.58-114.06,33.32-86.37-25.15-168.48-87-213.2-5.29-3.82-6.75-9.25-5.11-15.16,1.88-6.78,10.05-11.46,16.94-9.17,109.45,36.26,227.26,156.62,276.73,233.76,43.47,67.78,130.65,118.38,259.82,79.85,7.36-2.2,12.48.26,15.7,4.87,2.64,3.78,3.6,8.28,1.24,14.11-26.44,65.12-52.93,179.33,54.54,244.35,18.25,10.92,41.08,16.76,64.25,17.95,9.26.47,18.77-.25,27.85-1.33,19.25-2.3,43.09-11.84,57.68-21.14,48.8-31.11,92.71-101.08,56.21-187.01-9.4-22.13-32.83-49.36-45.77-64.72-10.5-12.47,2.33-26.94,14.05-22.64,8.02,2.95,30.14,13.37,30.14,13.37,23.81,10.47,51.52-1.29,60.42-25.73,31.36-86.12,116.11-266.27,298.91-287.54,6.23-.72,11.61,3.58,13.98,9.11,2.14,5-.02,13.1-4.91,15.72-61.73,33.14-107,90.96-134.58,144.8-8.57,16.73-33.47,70.5-33.47,95.81,0,34,24.86,55.54,47.7,61.75,24.42,6.65,52.64-3.04,68.62-25.44,11.12-15.58,20.44-37.04,33.8-66.51,36.46-80.43,107.76-135.73,211.38-151.96,7.59-1.19,14.23,4.41,15.64,10.76.81,3.64.72,10.62-6.41,14.96-84.42,51.43-122.04,95.79-116.64,149.64,6.54,65.34,81.73,96.45,139.47,95.26,8.62-.18,14.6,6.03,15,12.01.37,5.51-3.72,13.87-11.6,14.84-43.23,5.32-133.89,22.98-130.23,118.14,1.22,31.84,35.94,264.73,316.13,311.76,7.37,1.24,11.39,7.85,10.95,14.36s-5.61,12.92-13.26,12.83c-228.77-2.47-374.53-134.12-451.85-326.97-13.65-34.03-58.79-41.25-85.95-26.37-35.79,19.61-35.92,52.63-31.63,75.91,19.22,104.26,149.51,312.61,471.56,365.77,6.61,1.09,12.49,7.45,11.97,14.12-.68,8.69-7.15,12.99-13.76,13.4-220.22,13.89-472.6-116.16-580.36-268.68-15.28-21.63-43.49-28.33-64.23-6.98-39.37,40.53-91.36,75.54-159.87,77.8-69.3,2.28-157.97-35.4-189.42-107.53-15.38-35.27-50.27,18.94-107.5,45.02-13.17,6-27.04-4.59-20.71-17.6,25.36-52.09,43.9-117.28,19.89-172.48-25.88-59.49-78.76-95.42-142.75-96.38-41.57-.63-83.19,20.58-106.14,42.49-28.71,27.4-56.12,74.18-44.93,140.55,7.35,43.64,32.12,72.25,73.68,112.57,7.27,7.05,6.03,16.21,1.09,20.94-5.06,4.85-12.62,3.36-17.41,1.13-58.63-27.31-84.32,9.96-172.12,92.86-66.66,62.94-201.44,124.4-267.44,134.49-18.47,2.82-23.12-20.23-8.75-25.94,91.83-36.52,157.69-94.93,208.56-161.11,21.21-27.59,50.27-78.98,50.27-145.93s-22.64-113.68-46.24-146.02c-35.88-49.17-80.43-76.35-131.73-93.13Z"/>
</svg>